<svg xmlns="http://www.w3.org/2000/svg" version="1.1" xmlns:xlink="http://www.w3.org/1999/xlink" xmlns:svgjs="http://svgjs.dev/svgjs" width="100%" height="100%" viewBox="0 0 1000 600"><rect width="1000" height="600" x="0" y="0" fill="#4682b4"/><g><circle r="166.66666666666666" cx="358.05016581217444" cy="380.2724228227697" fill="#00cbfa" transform="matrix(0.6531386319700943,0,0,0.6531386319700944,0,51.62936426402683)"/><path d="M321.0669788155377 305.272421437141L321.0669788155377 305.272421437141Q332.01659154243276 305.272421437141 340.8344212605517 309.4713879695786Q349.684550721228 313.638054759459 355.8538015496556 321.0992952901751Q361.99075263552595 328.5282360783339 365.38222560403324 338.6380554987415Q368.7413988299833 348.74787491914896 368.7413988299833 360.8602783781036L368.7413988299833 360.8602783781036Q368.7413988299833 379.917126486859 361.4093572694961 397.00369029962434Q354.10961545156607 414.12255385494694 342.2233101905119 427.0101511352747Q330.36930467201495 439.93004815815976 315.026926957339 447.585087144219Q299.6845492426631 455.27242587283564 283.6315771917285 455.27242587283564L283.6315771917285 455.27242587283564Q271.29307553487337 455.27242587283564 261.9907496783962 450.8473611424975Q252.688423821919 446.42229641215937 246.42227376581977 438.99335562400057Q240.15612370972056 431.56441483584166 236.8938497114421 421.7775928410063Q233.63157571316364 412.0230705887281 233.63157571316364 401.3318558022908L233.63157571316364 401.3318558022908Q233.63157571316364 383.6315968809384 240.38222190762104 366.31893487027247Q247.13286810207845 349.00627285960667 258.9868736205754 335.5049804706918Q270.8408791390724 322.00368808177706 286.7646522197781 313.638054759459Q302.68842530048386 305.272421437141 321.0669788155377 305.272421437141ZM293.6444973844644 448.0695832825773L293.6444973844644 448.0695832825773Q305.72460110086183 448.0695832825773 317.48170739168717 442.25562962227906Q329.2065139399553 436.4416759619808 338.5088397964325 425.8473604032151Q347.81116565290966 415.2853445870066 353.6251193132079 400.4920624958033Q359.43907297350614 385.73108014715723 359.43907297350614 367.8370227704615L359.43907297350614 367.8370227704615Q359.43907297350614 342.25562666514924 347.22977028687984 327.72074251440364Q335.02046760025354 313.18585836365804 313.6380380273789 313.18585836365804L313.6380380273789 313.18585836365804Q298.03726237224527 313.18585836365804 285.1496650919175 319.4520084197573Q272.2297680690325 325.7504582184137 262.9274422125553 336.66777120275145Q253.62511635607814 347.5850841870893 248.52175703203858 362.2491673080637Q243.38609796544182 376.9132504290382 243.38609796544182 393.6445170736743L243.38609796544182 393.6445170736743Q243.38609796544182 405.7246207900717 246.7775709339491 415.7375409828076Q250.1367441598992 425.7504611755434 256.53209318622726 432.9533037658019Q262.9274422125553 440.1561463560602 272.3589670392614 444.0967149480401Q281.7581921234102 448.0695832825773 293.6444973844644 448.0695832825773ZM373.392561758222 455.27242587283564L373.392561758222 455.27242587283564Q370.3886857004012 455.27242587283564 368.0631042362819 452.3654490426865Q365.7375227721626 449.4584722125374 365.7375227721626 444.8073092842988L365.7375227721626 444.8073092842988Q365.7375227721626 441.0928388902194 366.77111453399334 436.08637879385145Q367.8047062958242 431.0799186974835 369.54889239391366 425.4920632350857Q371.29307849200313 419.9365075152452 373.87705789658014 414.3486520528474Q376.4287375585999 408.76079659044973 379.6910115568783 403.88353546431057L379.6910115568783 403.88353546431057Q377.1070321523014 405.7246207900717 374.32925429238105 407.95330302651934Q371.55147643246084 410.14968552040983 369.67809136414246 412.0230705887281L369.67809136414246 412.0230705887281Q368.96749702788384 412.4752669845291 368.5153006320828 411.66777342059885Q368.0631042362819 410.86027985666846 368.28920243418236 410.14968552040983L368.28920243418236 410.14968552040983Q369.9041895620429 408.53469839254916 372.4558692240628 406.43521512633043Q375.0398486286398 404.3357318601116 377.9468254587889 402.23624859389275Q380.853802288938 400.16906507023117 383.9868773169876 398.166481031684Q387.11995234503723 396.19619673569406 389.8977302049575 394.80730780573396L389.8977302049575 394.80730780573396Q390.8344227391167 394.5812096078334 391.4158181051465 395.25950420153487Q391.9972134711763 395.9700985377936 391.7711152732758 396.9067910719527L391.7711152732758 396.9067910719527Q384.34217448511697 406.43521512633043 379.78791078455 417.933923476698Q375.26594682654024 429.4649315696228 375.26594682654024 439.93004815815976L375.26594682654024 439.93004815815976Q375.26594682654024 446.6806943526171 379.20651541852015 446.6806943526171L379.20651541852015 446.6806943526171Q382.24269121889813 446.6806943526171 386.7646551769079 442.6109267904083Q391.31891887747486 438.54115922819955 396.1961800036139 431.8874122614138Q401.073441129753 425.26596503718525 406.0799012261209 416.90033171486726Q411.08636132248887 408.53469839254916 415.2530281123693 399.91066712977346L415.2530281123693 399.91066712977346Q415.9636224486279 398.2956800019129 417.9339067446179 397.00369029962434Q419.9041910406079 395.74400033989303 422.2297725047272 395.74400033989303L422.2297725047272 395.74400033989303Q425.2659483051051 395.74400033989303 424.3292557709459 397.58508566565416L424.3292557709459 397.58508566565416Q421.06698177266753 403.6574372664101 418.5153021106477 408.8899955606785Q415.9636224486279 414.12255385494694 414.3163355782101 419.22591317898656Q412.7013484503495 424.32927250302606 411.89385488641915 429.6910297675234Q411.08636132248887 435.0527870320206 411.08636132248887 441.31893708811987L411.08636132248887 441.31893708811987Q411.08636132248887 448.74787787627866 415.2530281123693 448.74787787627866L415.2530281123693 448.74787787627866Q417.12641318068756 448.74787787627866 419.45199464480686 446.77759358028874Q421.77757610892616 444.8073092842988 424.1031575730455 441.5450352860203L424.1031575730455 441.5450352860203Q424.78145216674693 441.0928388902194 425.4920465030056 441.5450352860203Q426.2026408392643 442.0295314243785 425.7181447009061 443.19232215643814L425.7181447009061 443.19232215643814Q422.45587070262764 448.0695832825773 418.1600049425184 451.6548547064278Q413.86413918240913 455.27242587283564 409.9235705904292 455.27242587283564L409.9235705904292 455.27242587283564Q406.8873947900512 455.27242587283564 404.78791152383246 452.2362500724576Q402.6884282576136 449.23237401463695 402.6884282576136 444.0967149480401L402.6884282576136 444.0967149480401Q402.6884282576136 438.54115922819955 403.7543197620016 432.1458102018715Q404.78791152383246 425.7504611755434 407.11349298795176 419.22591317898656L407.11349298795176 419.22591317898656Q402.6884282576136 427.817644699205 397.8111671314745 434.4713916659908Q392.9339060053354 441.0928388902194 388.41194204732574 445.744001818458Q383.85767834675875 450.3951647466966 379.91710975477883 452.81764543848743Q375.9442414202417 455.27242587283564 373.392561758222 455.27242587283564ZM455.95070373445697 402.23624859389275L455.95070373445697 402.23624859389275Q455.95070373445697 405.7246207900717 455.2724091407555 410.3757837183103Q454.56181480449675 415.0269466465489 453.39902407243716 419.67810957478747L453.39902407243716 419.67810957478747Q458.05018700067575 408.53469839254916 463.6380424630735 402.1393493662211Q469.22589792547126 395.74400033989303 475.718146179471 395.74400033989303L475.718146179471 395.74400033989303Q478.26982584149073 395.74400033989303 480.36930910770957 397.13288926985325Q482.4687923739284 398.52177819981335 482.4687923739284 401.0734578618331L482.4687923739284 401.0734578618331Q482.4687923739284 402.9468429301515 481.07990344396825 405.8538197603006Q479.6910145140081 408.76079659044973 478.26982584149073 410.14968552040983L478.26982584149073 410.14968552040983Q476.88093691153057 411.086378054569 476.88093691153057 409.47139092670835L476.88093691153057 409.47139092670835Q476.88093691153057 405.49852259217124 471.55147938959055 405.49852259217124L471.55147938959055 405.49852259217124Q463.411944265173 405.49852259217124 456.8873962686161 417.70782527879754Q450.3628482720592 429.91712796542384 444.54889461176094 451.55795547875624L444.54889461176094 451.55795547875624Q444.09669821596003 453.88353694287554 441.41581958371137 454.5618315365769Q438.7349409514627 455.27242587283564 436.8938556257016 455.27242587283564L436.8938556257016 455.27242587283564Q434.3421759636818 455.27242587283564 435.7310648936419 452.7207462108159L435.7310648936419 452.7207462108159Q437.83054815986077 447.84348508467673 439.6716334856219 442.12643065205015Q441.54501855394017 436.4416759619808 443.28920465202964 430.62772230168247Q445.0333907501191 424.81376864138423 446.19618148217876 419.22591317898656Q447.3589722142384 413.6380577165888 448.0372668079399 408.9868947883502L448.0372668079399 408.9868947883502Q448.9739593420991 402.0101503959923 445.7116853438206 402.0101503959923L445.7116853438206 402.0101503959923Q443.87060001805946 402.0101503959923 441.41581958371137 404.10963366221114Q438.9933388919204 406.20911692842986 436.8938556257016 408.9868947883502L436.8938556257016 408.9868947883502Q435.9571630915425 409.47139092670835 435.24656875528376 408.8899955606785Q434.5682741615823 408.3086001946487 435.0204705573833 407.3719076604895L435.0204705573833 407.3719076604895Q438.50884275356225 402.9468429301515 442.80470851367147 399.32927176374363Q447.13287401633795 395.74400033989303 450.8473444104174 395.74400033989303L450.8473444104174 395.74400033989303Q455.95070373445697 395.74400033989303 455.95070373445697 402.23624859389275Z " fill="white" transform="matrix(0.6531386319700943,0,0,0.6531386319700944,0,51.62936426402683)"/><path d="M735.231885788095 328.09072150353194L735.231885788095 328.09072150353194Q743.9678769204482 329.27572976438745 750.7196681741598 332.9409878735451Q757.4714594278713 336.6062459827028 762.0185841497587 341.98012065402423Q766.5932672032937 347.32643699369777 768.9632837250047 353.7750865992835Q771.3608585783635 360.2237362048691 771.3608585783635 367.1684357801152L771.3608585783635 367.1684357801152Q771.3608585783635 376.29024355553776 768.0814171122751 384.14436807516125Q764.8019756461866 391.97093426313705 758.7391426836701 397.8408589041189Q752.7038680528015 403.683225213453 743.8576435938571 407.04534167448475Q735.0389774665605 410.4350164671644 723.7400614909616 410.4350164671644L723.7400614909616 410.4350164671644Q710.4293873050732 410.4350164671644 702.4925877905061 403.87613353498756L702.4925877905061 403.87613353498756Q690.5873885186558 430.6628318966511 674.2177395198613 442.98140614321863Q657.848090521067 455.2724220581384 638.4194667093665 455.2724220581384L638.4194667093665 455.2724220581384Q630.8684838378688 455.2724220581384 625.2190258500693 452.7921722098362Q619.5695678622699 450.31192236153396 615.6838430999298 446.3435226042505Q611.8256766692375 442.37512284696703 609.9241517855392 437.1114815022368Q608.0501852334887 431.8478401575066 608.0501852334887 426.3086154962984L608.0501852334887 426.3086154962984Q608.0501852334887 422.5331240605495 609.1525184994007 418.67495762985726Q610.227293433665 414.7892328675171 612.1288183173633 411.3168830798941Q614.002784869414 407.844533292271 616.7861763658418 404.97846680089964Q619.5695678622699 402.08484197788044 622.9316843233017 400.5140170739557L622.9316843233017 400.5140170739557Q624.9158842019435 400.10064209923866 624.1166925841572 401.89193365634577L624.1166925841572 401.89193365634577Q618.3570012697667 405.06114179584307 615.4909347783952 410.4350164671644Q612.6248682870238 415.78133280683807 612.6248682870238 421.9268407642979L612.6248682870238 421.9268407642979Q612.6248682870238 427.6865320786886 614.6917431606089 432.6470317752929Q616.7861763658418 437.6075314718973 620.7545761231254 441.3830229076461Q624.722975880409 445.158514343395 630.4826671947994 447.2253892169802Q636.2148001775423 449.3198224222131 643.76578304904 449.3198224222131L643.76578304904 449.3198224222131Q652.8875908244626 449.3198224222131 660.5212486909038 446.9498059005021Q668.1824648889926 444.5522310471434 674.6311144945784 438.70986473780937Q681.0797641001641 432.83994009682755 686.6189887613723 423.02917403020996Q692.1857717542282 413.2184079635925 697.3391797723673 398.33690887377935L697.3391797723673 398.33690887377935Q695.1620715721908 395.14014240263435 693.5636883366184 391.39220929853326Q691.9928634326936 387.61671786278436 691.0007634933728 383.0420348092492L691.0007634933728 383.0420348092492Q691.1936718149074 382.242843191463 691.7723967795112 381.9672598749849Q692.3786800757629 381.6641182268591 692.7644967188321 382.242843191463L692.7644967188321 382.242843191463Q694.5557882759392 389.9867343844954 698.3312797116881 395.14014240263435L698.3312797116881 395.14014240263435Q700.3154795903299 388.9946344451744 702.4925877905061 381.47120990532454L702.4925877905061 381.47120990532454Q707.0672708440413 364.6055109368696 712.5238205103061 352.3971700168934Q717.980370176571 340.1888290969171 725.5037947164209 332.4449379038847L725.5037947164209 332.4449379038847Q724.3187864555654 332.2520295823501 723.0235448681187 332.2520295823501Q721.7558616123198 332.2520295823501 720.3503866982819 332.2520295823501L720.3503866982819 332.2520295823501Q699.323379651009 332.2520295823501 684.7450222093216 342.36593729709347Q670.1666647676344 352.47984501183674 664.4069734532438 372.3218437982543L664.4069734532438 372.3218437982543Q663.8006901569922 372.9281270945059 663.2219651923883 372.4320771248454Q662.6156818961367 371.93602715518506 662.6156818961367 370.3376439196125L662.6156818961367 370.3376439196125Q669.3674731498481 350.49564513319507 685.0481638574475 339.0038208360616Q700.701296233399 327.48443820728033 726.4958946557417 327.48443820728033L726.4958946557417 327.48443820728033Q727.708461248245 327.48443820728033 728.7832361825093 327.48443820728033Q729.8855694484214 327.48443820728033 730.8776693877423 327.67734652881495L730.8776693877423 327.67734652881495Q737.6294606414538 322.5239385106759 746.5583600953416 320.34683031049957L746.5583600953416 320.34683031049957Q747.5504600346626 320.34683031049957 747.6331350296059 320.95311360675123Q747.7433683561972 321.5318385713551 746.7512684168762 321.9452135460721L746.7512684168762 321.9452135460721Q743.3615936241966 322.93731348539296 740.6057604594164 324.4254633943743Q737.8223689629884 325.9136133033556 735.231885788095 328.09072150353194ZM725.7242613696033 406.46661670988095L725.7242613696033 406.46661670988095Q734.0468775272395 406.46661670988095 740.8813437758945 403.683225213453Q747.7433683561972 400.89983371702493 752.5936347262103 396.04956734701176Q757.4714594278713 391.1717426453508 760.0343842711168 384.64041804482173Q762.6248674460103 378.0815351126449 762.6248674460103 370.5581105727949L762.6248674460103 370.5581105727949Q762.6248674460103 363.6134109975488 760.5304342407773 357.3576697134977Q758.4635593671921 351.1019284294467 754.3849262833174 346.2516620594335Q750.3062931994427 341.3738373577725 744.2710185685742 337.9014875701495Q738.2081856060577 334.4291377825264 730.4642944130253 333.05122120013635L730.4642944130253 333.05122120013635Q725.1179780733517 339.5825458006654 720.9566699945336 349.31063687233956Q716.7953619157155 359.0387279440136 713.4056871230358 371.93602715518506L713.4056871230358 371.93602715518506Q709.2443790442177 387.80962618431903 703.8980627045441 400.7069253954904L703.8980627045441 400.7069253954904Q711.8348622191111 406.46661670988095 725.7242613696033 406.46661670988095ZM841.1936709738939 307.8353477423975L841.1936709738939 307.8353477423975Q846.3470789920328 307.8353477423975 847.8352289010141 312.6029391174672Q849.3233788099955 317.37053049253694 846.5399873135675 322.7168468322106L846.5399873135675 322.7168468322106Q846.1541706704982 323.13022180692764 845.5478873742466 322.7168468322106Q844.9691624096426 322.33103018914136 844.7762540881081 321.7247468928897L844.7762540881081 321.7247468928897Q845.1620707311773 319.35473037117873 843.0676375259444 317.7563471356062Q841.0007626523592 316.1855222316815 836.6189879203587 316.1855222316815L836.6189879203587 316.1855222316815Q828.1034634411878 316.1855222316815 819.7532889519039 323.3231301284622Q811.4306727942676 330.46073802524296 803.6867816012352 341.869887327433Q795.9428904082029 353.279036629623 789.3013324810827 367.3613441016499Q782.6597745539623 381.47120990532454 777.8095081839492 395.44328405076016Q772.9316834822882 409.4429165278436 770.1482919858602 421.84416576935445Q767.39245882108 434.24541501086543 767.39245882108 441.9893062038978L767.39245882108 441.9893062038978Q767.39245882108 447.94190583982305 770.7545752821119 447.94190583982305L770.7545752821119 447.94190583982305Q773.1245918038228 447.94190583982305 775.4119333305904 445.95770596118126Q777.699274857358 443.9735060825395 780.6755746753206 440.005106325256L780.6755746753206 440.005106325256Q781.2818579715722 439.59173135053896 781.7779079412327 440.08778132019944Q782.273957910893 440.5838312898599 782.0534912577107 441.3830229076461L782.0534912577107 441.3830229076461Q778.0850915004272 447.528530865106 773.3450584570053 451.41425562744604Q768.5774670819355 455.2724220581384 765.1877922892559 455.2724220581384L765.1877922892559 455.2724220581384Q762.6248674460103 455.2724220581384 761.0264842104377 453.17798885290546Q759.455659306513 451.11111397932024 759.455659306513 447.528530865106L759.455659306513 447.528530865106Q759.455659306513 441.9893062038978 761.4398591851548 433.14308174495335Q763.4240590637964 424.3244156176566 766.979083846363 413.41131628512704Q770.5616669605772 402.4982169525975 775.6048416521251 390.48278435415574Q780.6755746753206 378.4949100873619 786.6281743112459 366.78261913704597Q792.5807739471711 355.07032818673014 799.2223318742913 344.35013717573514Q805.8638898014117 333.62994616474015 812.9188227032489 325.50023832863855Q819.9737556050864 317.37053049253694 827.111363501867 312.6029391174672Q834.2489713986478 307.8353477423975 841.1936709738939 307.8353477423975ZM833.642688102396 442.76093949003626L833.642688102396 442.76093949003626Q834.0560630771131 442.37512284696703 834.634788041717 442.76093949003626Q835.2410713379686 443.1743144647533 835.048163016434 443.9735060825395L835.048163016434 443.9735060825395Q830.8868549376159 449.70563906528236 826.8082218537412 452.4890305617103Q822.7295887698665 455.2724220581384 819.9737556050864 455.2724220581384L819.9737556050864 455.2724220581384Q818.1824640479791 455.2724220581384 817.080130782067 453.48113050103126Q816.0053558478028 451.68983894392414 815.702214199677 448.6308641310181Q815.3990725515512 445.5443309864642 815.8951225212115 441.686164555772Q816.391172490872 437.80043979343185 817.5761807517275 433.6391317146137L817.5761807517275 433.6391317146137Q812.2298644120539 441.9893062038978 806.2772647761287 448.0245808347665Q800.3246651402035 454.08741379728286 794.7578821473473 455.2724220581384L794.7578821473473 455.2724220581384Q791.2028573647809 455.2724220581384 788.7226075164788 451.8000722705153Q786.2423576681766 448.3277224828923 786.2423576681766 440.99720626457696L786.2423576681766 440.99720626457696Q786.2423576681766 434.4383233324 788.9155158380133 427.9896737268144Q791.5886740078502 421.54102412122865 796.1633570613853 416.2773827764984Q800.7104817832727 411.0137414317683 806.6630814191979 407.844533292271Q812.6156810551231 404.67532515277384 819.1745639873 404.67532515277384L819.1745639873 404.67532515277384Q822.7295887698665 404.67532515277384 825.3200719447599 405.4745167705601Q827.9105551196533 406.2737083883464 830.0876633198296 407.844533292271L830.0876633198296 407.844533292271Q831.272671580685 406.8524333529502 833.3671047859181 405.9705667402205Q835.4339796595032 405.06114179584307 837.2252712166104 405.06114179584307L837.2252712166104 405.06114179584307Q838.2173711559312 405.06114179584307 837.831554512862 406.0532417351639L837.831554512862 406.0532417351639Q833.2568714593268 411.6200247280199 829.9774299932384 418.37181598173146Q826.69798852715 425.1236072354429 824.9342553016907 431.46202351443736Q823.1429637445835 437.80043979343185 822.6469137749231 442.67826449509283Q822.1508638052626 447.528530865106 823.3358720661181 449.3198224222131L823.3358720661181 449.3198224222131Q824.327972005439 450.6977390046032 826.9184551803323 449.43005574880436Q829.4813800235779 448.1348141613576 833.642688102396 442.76093949003626ZM799.139656879348 448.52063080442684L799.139656879348 448.52063080442684Q801.3167650795243 448.52063080442684 804.7891148671474 445.4616559915208Q808.2614646547704 442.37512284696703 812.0369560905193 437.4146231503626Q815.7848891946204 432.4541234537583 819.4777056354258 426.19838216970726Q823.1429637445835 419.9426408856562 825.9263552410115 413.6042246066617L825.9263552410115 413.6042246066617Q825.1271636232252 411.0137414317683 822.233538800206 409.4429165278436Q819.3674723088346 407.844533292271 815.5919808730857 407.844533292271L815.5919808730857 407.844533292271Q811.237764472733 407.844533292271 807.352039710393 410.1318748190386Q803.4938732797007 412.4192163458062 800.517573461738 416.4702910980331Q797.5412736437754 420.5489241819078 795.7499820866683 426.1157071747638Q793.9586905295612 431.65493183597204 793.9586905295612 438.40672308968357L793.9586905295612 438.40672308968357Q793.9586905295612 442.76093949003626 795.4468404385425 445.65456431305546Q796.9349903475238 448.52063080442684 799.139656879348 448.52063080442684ZM894.3812510541518 442.5680311685016L894.3812510541518 442.5680311685016Q894.9599760187556 442.18221452543236 895.5662593150073 442.5680311685016Q896.1449842796111 442.98140614321863 895.9520759580764 443.7530394293571L895.9520759580764 443.7530394293571Q892.5899594970447 448.3277224828923 888.5113264131699 451.8000722705153Q884.4602516609431 455.2724220581384 880.8776685467287 455.2724220581384L880.8776685467287 455.2724220581384Q874.7321605892689 455.2724220581384 874.7321605892689 447.33562254357133L874.7321605892689 447.33562254357133Q874.7321605892689 440.5838312898599 877.1021771109799 432.34389012716707Q879.4997519643387 424.13150729612204 883.6610600431568 415.78133280683807L883.6610600431568 415.78133280683807Q884.4602516609431 414.403416224448 884.4602516609431 412.99794131041L884.4602516609431 412.99794131041Q884.4602516609431 410.82083311023365 882.4760517823013 410.82083311023365L882.4760517823013 410.82083311023365Q875.1179772323381 410.82083311023365 866.2993111050414 420.93474082497704Q857.4530866460971 431.07620687136813 849.9296621062471 452.681938883245L849.9296621062471 452.681938883245Q849.51628713153 453.8945054757483 847.7525539060707 454.58346376694334Q845.9612623489636 455.2724220581384 844.362879113391 455.2724220581384L844.362879113391 455.2724220581384Q842.1857709132147 455.2724220581384 842.7920542094664 453.48113050103126L842.7920542094664 453.48113050103126Q846.1541706704982 444.9656060218604 849.8194287796559 434.24541501086543Q853.4846868888135 423.52522399987043 856.2680783852416 412.99794131041L856.2680783852416 412.99794131041Q857.0672700030278 409.2500082063089 854.8901618028515 409.2500082063089L854.8901618028515 409.2500082063089Q852.9059619242097 409.2500082063089 850.9217620455679 411.2342080849507Q848.9375621669262 413.2184079635925 846.7604539667499 416.38761610308967L846.7604539667499 416.38761610308967Q846.3470789920328 416.7734327461589 845.8510290223724 416.1947077815551Q845.354979052712 415.5884244853034 845.5478873742466 414.9821411890518L845.5478873742466 414.9821411890518Q847.7525539060707 411.6200247280199 851.5004870101718 408.0374416138057Q855.2759784459207 404.48241683123916 859.6577531779212 404.48241683123916L859.6577531779212 404.48241683123916Q864.6182528745255 404.48241683123916 863.019869638953 411.2342080849507L863.019869638953 411.2342080849507Q862.2206780211668 415.5884244853034 860.8427614387767 420.43869085531657Q859.4372865247387 425.31651555697755 857.8664616208141 430.0841069320473L857.8664616208141 430.0841069320473Q860.6498531172421 424.71023226072583 864.3977862213432 419.9426408856562Q868.1732776570921 415.20260784223416 872.2519107409668 411.8129330495546Q876.3029854931937 408.45081658852274 880.3816185770684 406.46661670988095Q884.4602516609431 404.48241683123916 888.0152764435095 404.48241683123916L888.0152764435095 404.48241683123916Q890.4128512968682 404.48241683123916 891.6805345526672 405.6674250920947Q892.9757761401138 406.8524333529502 892.9757761401138 408.45081658852274L892.9757761401138 408.45081658852274Q892.9757761401138 411.0137414317683 891.7907678792584 413.6042246066617L891.7907678792584 413.6042246066617Q887.6294598004403 421.1552074781594 884.7358349774211 429.36759030920445Q881.8697684860497 437.6075314718973 881.8697684860497 444.5522310471434L881.8697684860497 444.5522310471434Q881.8697684860497 449.5127307437477 885.0389766255469 449.5127307437477L885.0389766255469 449.5127307437477Q889.200284704365 449.5127307437477 894.3812510541518 442.5680311685016ZM937.0415484449493 413.2184079635925L937.0415484449493 413.2184079635925Q937.0415484449493 415.9742411283726 934.8368819131251 418.37181598173146Q932.6597737129488 420.74183250344237 928.8842822771999 422.6433573871407Q925.1363491730988 424.5173239391913 920.2585244714378 426.1157071747638Q915.4082581014247 427.6865320786886 910.0343834301034 429.09200699272645L910.0343834301034 429.09200699272645Q909.8414751085687 431.2691151929028 909.7588001136253 433.44622339307915Q909.648566787034 435.6233315932555 909.648566787034 438.2138147681489L909.648566787034 438.2138147681489Q909.648566787034 443.1743144647533 911.8256749872105 446.53643092578517Q914.0027831873869 449.9261057184647 917.9711829446703 449.9261057184647L917.9711829446703 449.9261057184647Q921.9395827019538 449.9261057184647 925.4119324895769 447.94190583982305Q928.8842822771999 445.95770596118126 931.6676737736279 442.5680311685016L931.6676737736279 442.5680311685016Q932.4668653914141 442.18221452543236 932.8526820344835 442.76093949003626Q933.2660570092005 443.36722278628787 932.8526820344835 444.16641440407415L932.8526820344835 444.16641440407415Q929.4905655734515 448.7135391259615 924.4198325502559 451.99298059204995Q919.3766578587082 455.2724220581384 913.8098748658522 455.2724220581384L913.8098748658522 455.2724220581384Q908.6564668477133 455.2724220581384 905.3770253816248 451.9103055971065Q902.0975839155363 448.52063080442684 902.0975839155363 441.9893062038978L902.0975839155363 441.9893062038978Q902.0975839155363 436.03670656797254 904.3022504473604 429.36759030920445Q906.4793586475369 422.72603238208416 910.0343834301034 417.18680772087595Q913.6169665443176 411.6200247280199 918.2743245927961 408.0374416138057Q922.9316826412746 404.48241683123916 928.1126489910614 404.48241683123916L928.1126489910614 404.48241683123916Q931.8605820951625 404.48241683123916 934.451065270056 407.155575001076Q937.0415484449493 409.8287331709128 937.0415484449493 413.2184079635925ZM923.9237825805956 409.63582484937814L923.9237825805956 409.63582484937814Q919.3766578587082 409.63582484937814 915.7940747444939 413.6042246066617Q912.2390499619275 417.5726243639452 910.640666726355 426.1157071747638L910.640666726355 426.1157071747638Q920.1758494764945 424.71023226072583 924.6402992034384 422.0370740908891Q929.1047489303824 419.3639159210523 929.1047489303824 415.9742411283726L929.1047489303824 415.9742411283726Q929.1047489303824 413.2184079635925 927.6992740163444 411.42711640648537Q926.3213574339543 409.63582484937814 923.9237825805956 409.63582484937814ZM977.9105542786397 405.28160844902544L977.9105542786397 405.28160844902544Q978.9026542179606 405.6674250920947 978.7097458964259 406.46661670988095Q978.4892792432436 407.26580832766723 976.9184543393188 407.4587166492018L976.9184543393188 407.4587166492018Q973.7492461998216 407.65162497073646 969.8635214374815 407.844533292271Q966.0053550067893 408.0374416138057 962.0369552495058 408.45081658852274L962.0369552495058 408.45081658852274Q958.0685554922222 418.37181598173146 955.4780723173288 427.4936237571539Q952.9151474740834 436.61543153257645 952.9151474740834 442.5680311685016L952.9151474740834 442.5680311685016Q952.9151474740834 449.3198224222131 958.0685554922222 449.3198224222131L958.0685554922222 449.3198224222131Q963.2219635103612 449.3198224222131 969.3674714678211 440.1980146467907L969.3674714678211 440.1980146467907Q969.9737547640727 439.78463967207364 970.5524797286765 440.280689641734Q971.1587630249282 440.7767396113945 970.9658547033936 441.7688395507153L970.9658547033936 441.7688395507153Q969.1745631462865 444.5522310471434 966.8872216195189 447.03248089544553Q964.5998800927514 449.5127307437477 962.2298635710404 451.3040223008549Q959.8598470493293 453.095313857962 957.6551805175052 454.1700887922263Q955.4780723173288 455.2724220581384 954.1001557349387 455.2724220581384L954.1001557349387 455.2724220581384Q949.7183810029383 455.2724220581384 947.651506129353 452.59926388830155Q945.5570729241201 449.9261057184647 945.5570729241201 446.15061428271594L945.5570729241201 446.15061428271594Q945.5570729241201 439.59173135053896 948.3404644205482 429.67073195733025Q951.1238559169763 419.74973256412153 955.2851639957943 409.2500082063089L955.2851639957943 409.2500082063089Q952.6946808209009 409.63582484937814 950.3246642991899 410.0216414924474Q947.9546477774788 410.4350164671644 945.7499812456547 410.82083311023365L945.7499812456547 410.82083311023365Q944.7578813063338 410.6279247886991 945.2539312759943 409.8287331709128Q945.7499812456547 409.02954155312653 947.0452228331014 408.25790826698807Q948.3404644205482 407.4587166492018 950.1317559776553 406.76975835800675Q951.9230475347624 406.0532417351639 953.493872438687 406.0532417351639L953.493872438687 406.0532417351639Q954.485972378008 405.86033341362935 955.174930669203 405.86033341362935Q955.8914472920459 405.86033341362935 956.6630805781843 405.86033341362935L956.6630805781843 405.86033341362935Q959.4464720746124 399.7148254561694 962.2298635710404 394.0653674683701Q965.0132550674684 388.41590948057063 967.7966465638963 383.6483181055009L967.7966465638963 383.6483181055009Q968.9816548247518 382.4633098446454 970.4698047337332 381.553884900268Q971.9579546427144 380.67201828753826 973.3358712251046 380.36887663941246Q974.7413461391425 380.06573499128666 975.512979425281 380.1759683178778Q976.3121710430671 380.2586433128212 976.1192627215326 380.8649266090728L976.1192627215326 380.8649266090728Q972.7571462605008 386.0183346272118 969.4777047944124 392.3843092378541Q966.198263328324 398.7227255168486 963.2219635103612 405.4745167705601L963.2219635103612 405.4745167705601Q966.8045466245756 405.4745167705601 970.359571407142 405.3642834439689Q973.9421545213562 405.28160844902544 977.9105542786397 405.28160844902544ZM1054.1093412848122 351.4877450725159L1054.1093412848122 351.4877450725159Q1054.1093412848122 358.432444647762 1058.766699333291 363.310269349423Q1063.4240573817694 368.16053571943615 1074.7229733573683 371.5502105121158L1074.7229733573683 371.5502105121158Q1075.32925665362 371.93602715518506 1074.8332066839594 372.81789376791465Q1074.337156714299 373.7273187122922 1073.3450567749783 374.719418651613Q1072.3529568356573 375.71151859093385 1071.0577152482106 376.5107102087201Q1069.7624736607638 377.2823434948586 1068.9908403746253 377.50281014804096L1068.9908403746253 377.50281014804096Q1046.7512667348492 376.5107102087201 1034.4602508199296 387.1206678931239Q1022.141676573362 397.73062557752775 1022.141676573362 419.17100759951774L1022.141676573362 419.17100759951774Q1022.141676573362 426.1157071747638 1024.236109778595 432.0683068106891Q1026.3305429838279 438.02090644661433 1030.1887094145202 442.37512284696703Q1034.0468758452125 446.72933924731973 1039.5034255114772 449.2095890956219Q1044.959975177742 451.68983894392414 1051.9046747529883 451.68983894392414L1051.9046747529883 451.68983894392414Q1068.1916487568392 451.68983894392414 1078.4984647931171 444.16641440407415Q1088.832839161043 436.61543153257645 1093.3799638829303 419.74973256412153L1093.3799638829303 419.74973256412153Q1093.9862471791819 418.7576326248007 1094.675205470377 419.17100759951774Q1095.364163761572 419.55682424258697 1095.5570720831065 420.74183250344237L1095.5570720831065 420.74183250344237Q1093.1870555613955 431.8478401575066 1089.907614095307 439.20591470746973Q1086.6281726292186 446.53643092578517 1083.8723394644385 447.72143918664057L1083.8723394644385 447.72143918664057Q1076.9276398891925 450.9182056577857 1067.089315490927 453.095313857962Q1057.2785494243096 455.2724220581384 1047.1646417095662 455.2724220581384L1047.1646417095662 455.2724220581384Q1038.8144672202823 455.2724220581384 1032.3658176146964 452.681938883245Q1025.9171680091108 450.1190140399994 1021.5629516087581 445.7372393079989Q1017.1811768767576 441.3830229076461 1014.9213936816379 435.73356491984674Q1012.6340521548702 430.0841069320473 1012.6340521548702 423.91104064293967L1012.6340521548702 423.91104064293967Q1012.6340521548702 414.403416224448 1016.1064019424932 405.9705667402205Q1019.5787517301164 397.5377172559931 1025.8344930141675 390.9788343238162Q1032.0626759665706 384.44750972328717 1040.7159921039806 379.872826669752Q1049.3417499097425 375.2981436162168 1059.6485659460204 373.5344103907575L1059.6485659460204 373.5344103907575Q1053.310149667026 370.14473559807783 1049.7275665528118 365.5976108761906Q1046.1725417702455 361.0229278226554 1046.1725417702455 355.67661148298185L1046.1725417702455 355.67661148298185Q1046.1725417702455 350.10982849012584 1049.038608261617 345.0390954669302Q1051.9046747529883 339.99592077538244 1056.9754077761836 336.11019601304235Q1062.0461407993794 332.2520295823501 1068.880607048034 329.8820130606391Q1075.7150732966893 327.48443820728033 1083.8723394644385 327.48443820728033L1083.8723394644385 327.48443820728033Q1088.6123725078605 327.48443820728033 1093.1870555613955 328.3938631516578Q1097.761738614931 329.27572976438745 1101.3167633974972 330.76387967336876Q1104.8993465117114 332.2520295823501 1106.9662213852966 334.1259961344006Q1109.0606545905296 336.027521018099 1109.0606545905296 338.01172089674066L1109.0606545905296 338.01172089674066Q1109.0606545905296 339.5825458006654 1108.3716962993344 341.67697900589843Q1107.6827380081395 343.77141221113135 1106.773313063762 345.9485204113077Q1105.8914464510324 348.12562861148405 1104.7891131851202 349.9995951635346Q1103.7143382508561 351.90112004723295 1103.1080549546043 352.7003116650192L1103.1080549546043 352.7003116650192Q1102.7222383115352 353.08612830808846 1102.0057216886923 352.78298665996255Q1101.3167633974972 352.47984501183674 1101.5096717190318 351.7082117256983L1101.5096717190318 351.7082117256983Q1102.7222383115352 349.5035451938741 1103.300963276139 346.8303870240374Q1103.9072465723907 344.1572288542006 1102.3088633368181 341.5667456793072L1102.3088633368181 341.5667456793072Q1100.1317551366417 338.01172089674066 1093.9862471791819 334.4291377825264Q1087.840739221722 330.87411299996 1079.9039397071551 330.87411299996L1079.9039397071551 330.87411299996Q1073.3450567749783 330.87411299996 1068.5774653999083 332.6378462254193Q1063.8098740248386 334.4291377825264 1060.557990890398 337.40543760048905Q1057.2785494243096 340.3817374184517 1055.680166188737 344.04699552760934Q1054.1093412848122 347.7398119684148 1054.1093412848122 351.4877450725159ZM1152.327235277579 442.76093949003626L1152.327235277579 442.76093949003626Q1152.713051920648 442.37512284696703 1153.3193352168996 442.76093949003626Q1153.8980601815035 443.1743144647533 1153.7051518599687 443.9735060825395L1153.7051518599687 443.9735060825395Q1149.5438437811508 449.70563906528236 1145.4652106972762 452.4890305617103Q1141.414135945049 455.2724220581384 1138.630744448621 455.2724220581384L1138.630744448621 455.2724220581384Q1136.8394528915142 455.2724220581384 1135.737119625602 453.48113050103126Q1134.6623446913377 451.68983894392414 1134.359203043212 448.6308641310181Q1134.056061395086 445.5443309864642 1134.5521113647465 441.686164555772Q1135.0481613344068 437.80043979343185 1136.2331695952626 433.6391317146137L1136.2331695952626 433.6391317146137Q1130.886853255589 441.9893062038978 1124.9342536196637 448.0245808347665Q1118.9816539837384 454.08741379728286 1113.4148709908823 455.2724220581384L1113.4148709908823 455.2724220581384Q1109.859846208316 455.2724220581384 1107.3795963600137 451.8000722705153Q1104.8993465117114 448.3277224828923 1104.8993465117114 440.99720626457696L1104.8993465117114 440.99720626457696Q1104.8993465117114 434.4383233324 1107.5725046815483 427.9896737268144Q1110.245662851385 421.54102412122865 1114.8203459049203 416.2773827764984Q1119.3674706268075 411.0137414317683 1125.3200702627328 407.844533292271Q1131.272669898658 404.67532515277384 1137.8315528308349 404.67532515277384L1137.8315528308349 404.67532515277384Q1141.414135945049 404.67532515277384 1143.9770607882947 405.4745167705601Q1146.5675439631882 406.2737083883464 1148.7446521633647 407.844533292271L1148.7446521633647 407.844533292271Q1149.92966042422 406.8524333529502 1152.024093629453 405.9705667402205Q1154.090968503038 405.06114179584307 1155.8822600601452 405.06114179584307L1155.8822600601452 405.06114179584307Q1156.874359999466 405.06114179584307 1156.488543356397 406.0532417351639L1156.488543356397 406.0532417351639Q1151.9138603028618 411.6200247280199 1148.6344188367734 418.37181598173146Q1145.3825357023327 425.1236072354429 1143.5912441452256 431.46202351443736Q1141.7999525881182 437.80043979343185 1141.3039026184579 442.67826449509283Q1140.8078526487975 447.528530865106 1141.992860909653 449.3198224222131L1141.992860909653 449.3198224222131Q1142.984960848974 450.6977390046032 1145.5754440238675 449.43005574880436Q1148.1383688671128 448.1348141613576 1152.327235277579 442.76093949003626ZM1117.7966457228827 448.52063080442684L1117.7966457228827 448.52063080442684Q1119.9737539230591 448.52063080442684 1123.4461037106823 445.4616559915208Q1126.9184534983053 442.37512284696703 1130.6939449340543 437.4146231503626Q1134.4694363698031 432.4541234537583 1138.1346944789607 426.19838216970726Q1141.7999525881182 419.9426408856562 1144.5833440845463 413.6042246066617L1144.5833440845463 413.6042246066617Q1143.7841524667601 411.0137414317683 1140.9180859753887 409.4429165278436Q1138.0244611523694 407.844533292271 1134.2489697166206 407.844533292271L1134.2489697166206 407.844533292271Q1129.894753316268 407.844533292271 1126.0365868855756 410.1318748190386Q1122.1508621232356 412.4192163458062 1119.174562305273 416.4702910980331Q1116.1982624873103 420.5489241819078 1114.4069709302032 426.1157071747638Q1112.6432377047438 431.65493183597204 1112.6432377047438 438.40672308968357L1112.6432377047438 438.40672308968357Q1112.6432377047438 442.76093949003626 1114.131387613725 445.65456431305546Q1115.6195375227064 448.52063080442684 1117.7966457228827 448.52063080442684ZM1181.098133517884 410.0216414924474L1181.098133517884 410.0216414924474Q1181.098133517884 412.99794131041 1180.4918502216324 416.9663410676936Q1179.8855669253808 420.93474082497704 1178.89346698606 424.9031405822605L1178.89346698606 424.9031405822605Q1182.8618667433434 415.39551616376883 1187.6294581184131 409.93896649750405Q1192.3970494934829 404.48241683123916 1197.963832486339 404.48241683123916L1197.963832486339 404.48241683123916Q1200.1409406865153 404.48241683123916 1201.9322322436224 405.6674250920947Q1203.6959654690818 406.8524333529502 1203.6959654690818 409.02954155312653L1203.6959654690818 409.02954155312653Q1203.6959654690818 410.6279247886991 1202.5109572082263 413.10817463700124Q1201.3259489473708 415.5884244853034 1200.1409406865153 416.7734327461589L1200.1409406865153 416.7734327461589Q1198.9559324256597 417.5726243639452 1198.9559324256597 416.1947077815551L1198.9559324256597 416.1947077815551Q1198.9559324256597 412.80503298887544 1194.3812493721248 412.80503298887544L1194.3812493721248 412.80503298887544Q1187.4365497968786 412.80503298887544 1181.8697668040227 423.22208235174463Q1176.3305421428145 433.6391317146137 1171.37004244621 452.1032139186411L1171.37004244621 452.1032139186411Q1170.956667471493 454.08741379728286 1168.696884276373 454.66613876188677Q1166.4095427496056 455.2724220581384 1164.811159514033 455.2724220581384L1164.811159514033 455.2724220581384Q1162.6340513138568 455.2724220581384 1163.8190595747124 453.095313857962L1163.8190595747124 453.095313857962Q1165.6103511318192 448.9340057791439 1167.208734367392 444.0561810774829Q1168.7795592713167 439.20591470746973 1170.267709180298 434.24541501086543Q1171.755859089279 429.284915314261 1172.7479590286002 424.5173239391913Q1173.740058967921 419.74973256412153 1174.3463422641726 415.78133280683807L1174.3463422641726 415.78133280683807Q1175.1455338819587 409.8287331709128 1172.362142385531 409.8287331709128L1172.362142385531 409.8287331709128Q1170.7637591499583 409.8287331709128 1168.696884276373 411.6200247280199Q1166.6024510711404 413.41131628512704 1164.811159514033 415.78133280683807L1164.811159514033 415.78133280683807Q1164.011967896247 416.1947077815551 1163.4332429316428 415.69865781189463Q1162.8269596353912 415.20260784223416 1163.2403346101082 414.403416224448L1163.2403346101082 414.403416224448Q1166.2166344280708 410.6279247886991 1169.8818925372286 407.5413916441452Q1173.5471506463864 404.48241683123916 1176.7163587858836 404.48241683123916L1176.7163587858836 404.48241683123916Q1181.098133517884 404.48241683123916 1181.098133517884 410.0216414924474ZM1236.655730119853 405.28160844902544L1236.655730119853 405.28160844902544Q1237.6478300591739 405.6674250920947 1237.4273634059914 406.46661670988095Q1237.2344550844568 407.26580832766723 1235.6636301805322 407.4587166492018L1235.6636301805322 407.4587166492018Q1232.466863709387 407.65162497073646 1228.6086972786948 407.844533292271Q1224.7505308480024 408.0374416138057 1220.782131090719 408.45081658852274L1220.782131090719 408.45081658852274Q1216.8137313334357 418.37181598173146 1214.2232481585422 427.4936237571539Q1211.632764983649 436.61543153257645 1211.632764983649 442.5680311685016L1211.632764983649 442.5680311685016Q1211.632764983649 449.3198224222131 1216.8137313334357 449.3198224222131L1216.8137313334357 449.3198224222131Q1221.9671393515744 449.3198224222131 1228.1126473090342 440.1980146467907L1228.1126473090342 440.1980146467907Q1228.718930605286 439.78463967207364 1229.29765556989 440.280689641734Q1229.9039388661415 440.7767396113945 1229.711030544607 441.7688395507153L1229.711030544607 441.7688395507153Q1227.9197389874996 444.5522310471434 1225.6323974607321 447.03248089544553Q1223.3450559339647 449.5127307437477 1220.9750394122536 451.3040223008549Q1218.577464558895 453.095313857962 1216.4003563587187 454.1700887922263Q1214.2232481585422 455.2724220581384 1212.8453315761521 455.2724220581384L1212.8453315761521 455.2724220581384Q1208.4635568441515 455.2724220581384 1206.3966819705663 452.59926388830155Q1204.3022487653334 449.9261057184647 1204.3022487653334 446.15061428271594L1204.3022487653334 446.15061428271594Q1204.3022487653334 439.59173135053896 1207.0856402617615 429.67073195733025Q1209.8690317581895 419.74973256412153 1214.0303398370074 409.2500082063089L1214.0303398370074 409.2500082063089Q1211.4398566621142 409.63582484937814 1209.0698401404031 410.0216414924474Q1206.6722652870444 410.4350164671644 1204.495157086868 410.82083311023365L1204.495157086868 410.82083311023365Q1203.5030571475472 410.6279247886991 1203.9991071172076 409.8287331709128Q1204.495157086868 409.02954155312653 1205.790398674315 408.25790826698807Q1207.0856402617615 407.4587166492018 1208.8769318188686 406.76975835800675Q1210.6406650443278 406.0532417351639 1212.2390482799005 406.0532417351639L1212.2390482799005 406.0532417351639Q1213.2311482192213 405.86033341362935 1213.9201065104162 405.86033341362935Q1214.6090648016113 405.86033341362935 1215.4082564193975 405.86033341362935L1215.4082564193975 405.86033341362935Q1218.1916479158256 399.7148254561694 1220.9750394122536 394.0653674683701Q1223.7584309086817 388.41590948057063 1226.5142640734618 383.6483181055009L1226.5142640734618 383.6483181055009Q1227.726830665965 382.4633098446454 1229.2149805749466 381.553884900268Q1230.7031304839277 380.67201828753826 1232.0810470663178 380.36887663941246Q1233.4589636487078 380.06573499128666 1234.2581552664942 380.1759683178778Q1235.0573468842806 380.2586433128212 1234.864438562746 380.8649266090728L1234.864438562746 380.8649266090728Q1231.4747637700664 386.0183346272118 1228.2228806356254 392.3843092378541Q1224.943439169537 398.7227255168486 1221.9671393515744 405.4745167705601L1221.9671393515744 405.4745167705601Q1225.522164134141 405.4745167705601 1229.1047472483554 405.3642834439689Q1232.6873303625696 405.28160844902544 1236.655730119853 405.28160844902544ZM1234.864438562746 453.48113050103126L1234.864438562746 453.48113050103126Q1243.7933380166337 419.3639159210523 1254.8993456706978 391.97093426313705Q1266.0053533247622 364.6055109368696 1278.2136942447385 345.3422371150561Q1290.4220351647148 326.10652162489026 1303.1264260543514 315.68947226202107Q1315.8032586123404 305.2724228991519 1327.708457884191 305.2724228991519L1327.708457884191 305.2724228991519Q1332.0902326161915 305.2724228991519 1334.956299107563 306.9534811296678Q1337.849923930582 308.63453936018374 1338.9246988648463 311.2250225350771Q1340.0270321307582 313.7879473783227 1339.5309821610979 316.9847138494677Q1339.0349321914375 320.153921988965 1336.6373573380788 323.13022180692764L1336.6373573380788 323.13022180692764Q1336.2515406950095 323.70894677153143 1335.6452573987578 323.51603844999687Q1335.0665324341542 323.3231301284622 1335.0665324341542 322.5239385106759L1335.0665324341542 322.5239385106759Q1335.8657240519403 318.55553875339245 1332.6689575807952 315.00051397082603Q1329.499749441298 311.41793085661175 1322.555049866052 311.41793085661175L1322.555049866052 311.41793085661175Q1313.2403337690948 311.41793085661175 1303.5122426974206 318.7484470749271Q1293.7841516257465 326.10652162489026 1284.0560605540725 341.2911623628292Q1274.3555278140461 356.4482447691202 1264.9305783904979 379.48701002668275Q1255.5056289669496 402.4982169525975 1246.7696378345966 434.05250668933076L1246.7696378345966 434.05250668933076Q1249.9388459740937 427.87944040022313 1254.1001540529116 422.42289073395835Q1258.2614621317298 416.9663410676936 1262.6432368637304 412.99794131041Q1266.9974532640829 409.02954155312653 1271.461902991027 406.76975835800675Q1275.9263527179708 404.48241683123916 1280.0876607967891 404.48241683123916L1280.0876607967891 404.48241683123916Q1282.4852356501478 404.48241683123916 1283.6702439110034 405.6674250920947Q1284.8552521718586 406.8524333529502 1284.8552521718586 408.45081658852274L1284.8552521718586 408.45081658852274Q1284.8552521718586 411.0137414317683 1283.0639606147517 414.2105079029133L1283.0639606147517 414.2105079029133Q1278.9026525359334 421.54102412122865 1276.2294943660966 429.284915314261Q1273.5563361962597 437.0288065072934 1273.5563361962597 443.36722278628787L1273.5563361962597 443.36722278628787Q1273.5563361962597 446.15061428271594 1274.245294487455 447.94190583982305Q1274.93425277865 449.70563906528236 1276.5326360142224 449.70563906528236L1276.5326360142224 449.70563906528236Q1278.5168358928643 449.70563906528236 1280.804177419632 447.63876419169713Q1283.0639606147517 445.5443309864642 1284.8552521718586 442.98140614321863L1284.8552521718586 442.98140614321863Q1285.4615354681105 442.5680311685016 1286.0402604327144 443.06408113816207Q1286.646543728966 443.56013110782254 1286.4536354074314 444.3593227256087L1286.4536354074314 444.3593227256087Q1285.2686271465757 446.15061428271594 1283.4773355894688 448.0245808347665Q1281.6860440323615 449.9261057184647 1279.5916108271285 451.6071639489807Q1277.5247359535433 453.2882221794966 1275.347627753367 454.28032211881754Q1273.1429612215427 455.2724220581384 1271.3792279960835 455.2724220581384L1271.3792279960835 455.2724220581384Q1266.4187282994792 455.2724220581384 1266.4187282994792 446.9498059005021L1266.4187282994792 446.9498059005021Q1266.4187282994792 439.78463967207364 1268.7887448211902 431.35179018784623Q1271.1587613429012 422.9189407036187 1274.548436135581 416.38761610308967L1274.548436135581 416.38761610308967Q1275.7334443964362 414.403416224448 1275.7334443964362 412.99794131041L1275.7334443964362 412.99794131041Q1275.7334443964362 411.2342080849507 1273.5563361962597 411.2342080849507L1273.5563361962597 411.2342080849507Q1269.9737530820455 411.2342080849507 1265.8124450032276 413.99004124973084Q1261.6511369244095 416.7734327461589 1257.2693621924088 422.14730741748036Q1252.9151457920564 427.4936237571539 1248.9467460347728 435.127281623595Q1244.9783462774892 442.76093949003626 1241.809138137992 452.29612224017575L1241.809138137992 452.29612224017575Q1241.395763163275 453.6740388225658 1239.714704932759 454.4732304403521Q1238.0336467022432 455.2724220581384 1236.4352634666704 455.2724220581384L1236.4352634666704 455.2724220581384Q1234.2581552664942 455.2724220581384 1234.864438562746 453.48113050103126Z " fill="white" transform="matrix(0.6531386319700943,0,0,0.6531386319700944,0,51.62936426402683)"/></g></svg>